<svg width="50" height="50" viewBox="0 0 50 50" fill="none" xmlns="http://www.w3.org/2000/svg">
<path d="M15.8905 23.7056C12.6225 23.7056 10.4166 21.4308 10.4166 18.0607C10.4166 15.0276 12.9493 12.5 16.3807 12.5C20.1388 12.5 22.9166 15.5331 22.9166 20.167C22.9166 30.6985 15.2369 34.9112 10.4166 35.4167V30.7828C13.6846 30.193 17.3611 26.9072 17.5245 23.2843C17.3611 23.3686 16.7075 23.7056 15.8905 23.7056Z" fill="#57595C"/>
<path d="M32.5571 23.7056C29.2892 23.7056 27.0833 21.4308 27.0833 18.0607C27.0833 15.0276 29.616 12.5 33.0473 12.5C36.8055 12.5 39.5833 15.5331 39.5833 20.167C39.5833 30.6985 31.9036 34.9112 27.0833 35.4167V30.7828C30.3513 30.193 34.0277 26.9072 34.1911 23.2843C34.0277 23.3686 33.3741 23.7056 32.5571 23.7056Z" fill="#57595C"/>
</svg>
