<svg width="50" height="50" viewBox="0 0 50 50" fill="none" xmlns="http://www.w3.org/2000/svg">
<path d="M24.9999 8.33337C15.81 8.33337 8.33325 15.8102 8.33325 25C8.33325 34.1899 15.81 41.6667 24.9999 41.6667C27.9306 41.6667 30.8125 40.8956 33.3353 39.4359L31.2499 35.8287C29.3599 36.9222 27.1982 37.5001 24.9999 37.5001C18.107 37.5001 12.4999 31.8929 12.4999 25C12.4999 18.1072 18.107 12.5 24.9999 12.5C31.8928 12.5 37.4999 18.1072 37.4999 25V26.8148C37.4999 28.178 36.6241 29.1667 35.4166 29.1667C34.2681 29.1667 33.3332 28.2318 33.3332 27.0833V18.75H30.4533C28.9877 17.4697 27.0942 16.6667 24.9999 16.6667C20.405 16.6667 16.6665 20.4051 16.6665 25C16.6665 29.595 20.405 33.3334 24.9999 33.3334C27.188 33.3334 29.1664 32.4681 30.6549 31.0838C31.8022 32.4473 33.4992 33.3334 35.4166 33.3334C38.921 33.3334 41.6666 30.4699 41.6666 26.8148V25C41.6666 15.8102 34.1898 8.33337 24.9999 8.33337ZM24.9999 29.1667C22.7019 29.1667 20.8333 27.298 20.8333 25C20.8333 22.702 22.702 20.8334 24.9999 20.8334C27.2979 20.8334 29.1666 22.7021 29.1666 25C29.1666 27.298 27.2979 29.1667 24.9999 29.1667Z" fill="#57595C"/>
</svg>
