<svg width="50" height="50" viewBox="0 0 50 50" fill="none" xmlns="http://www.w3.org/2000/svg">
<path d="M25 43.75C15.7953 43.75 8.33337 36.2881 8.33337 27.0833C8.33337 17.8786 15.7953 10.4167 25 10.4167C34.2048 10.4167 41.6667 17.8786 41.6667 27.0833C41.6564 36.2838 34.2005 43.7397 25 43.75ZM25 14.5833C18.0965 14.5833 12.5 20.1798 12.5 27.0833C12.5 33.9869 18.0965 39.5833 25 39.5833C31.9036 39.5833 37.5 33.9869 37.5 27.0833C37.492 20.1831 31.9003 14.5914 25 14.5833ZM27.0834 29.1667H22.9167V18.75H27.0834V29.1667ZM40.1938 16.0563L36.0271 11.8896L38.973 8.94375L43.1396 13.1104L40.1959 16.0542L40.1938 16.0563ZM31.25 8.33334H18.75V4.16667H31.25V8.33334Z" fill="#57595C"/>
</svg>
